<?xml version="1.0" encoding="UTF-8"?>
<svg version="1.1" xmlns="http://www.w3.org/2000/svg" width="1321" height="203">
<path d="M0 0 C435.93 0 871.86 0 1321 0 C1321 66.99 1321 133.98 1321 203 C885.07 203 449.14 203 0 203 C0 136.01 0 69.02 0 0 Z " fill="#010101" transform="translate(0,0)"/>
<path d="M0 0 C1.55968506 0.00410889 1.55968506 0.00410889 3.15087891 0.00830078 C26.44513339 0.32013339 26.44513339 0.32013339 31.4375 5.3125 C32.448125 5.725 33.45875 6.1375 34.5 6.5625 C48.41090879 12.35151173 59.44759284 23.55577541 65.4375 37.3125 C65.5625 40.5625 65.5625 40.5625 65.4375 43.3125 C59.75164728 44.5331326 54.18217968 45.67061721 48.4375 44.3125 C45.64537866 41.35150035 44.19178106 37.94956042 42.4375 34.3125 C33.47042151 24.25187535 22.55529207 17.9629972 9.01318359 17.1706543 C-9.7530743 16.50916296 -24.93434502 18.18563383 -39.3125 31.4375 C-50.48655942 43.12576393 -52.92733192 57.97595927 -52.7734375 73.50390625 C-52.00541501 87.37097901 -46.42206514 99.65859157 -36.2578125 109.125 C-31.97523651 112.60071385 -27.61557497 115.12146478 -22.5625 117.3125 C-21.61117187 117.725 -20.65984375 118.1375 -19.6796875 118.5625 C-4.67950584 124.08686358 12.93717995 122.83489428 27.4375 116.3125 C37.54301678 111.2453089 44.39161795 104.06079644 48.55078125 93.48046875 C49.73167925 89.56257654 49.73167925 89.56257654 50.4375 82.3125 C33.9375 82.3125 17.4375 82.3125 0.4375 82.3125 C0.4375 77.0325 0.4375 71.7525 0.4375 66.3125 C22.8775 66.3125 45.3175 66.3125 68.4375 66.3125 C68.4375 89.0825 68.4375 111.8525 68.4375 135.3125 C63.1575 135.3125 57.8775 135.3125 52.4375 135.3125 C52.4375 128.3825 52.4375 121.4525 52.4375 114.3125 C51.7775 114.3125 51.1175 114.3125 50.4375 114.3125 C50.210625 114.84875 49.98375 115.385 49.75 115.9375 C43.98540696 126.36866836 32.4190007 132.48973509 21.4375 136.3125 C1.18953002 141.58055993 -20.96005752 139.19770409 -39.34375 129.2890625 C-56.53765532 118.73066918 -66.6357995 103.18774732 -71.64453125 83.87109375 C-75.58259168 66.30742019 -72.06158769 46.5286312 -62.5625 31.3125 C-52.51876751 16.67982077 -38.90462333 6.48655933 -21.5625 2.3125 C-20.81967773 2.13348145 -20.07685547 1.95446289 -19.31152344 1.77001953 C-12.83164006 0.34379258 -6.6242121 -0.03545807 0 0 Z " fill="#1850F5" transform="translate(778.5625,18.6875)"/>
<path d="M0 0 C14.83828914 -0.71983615 26.08822001 1.52089376 37.87719727 11.1328125 C38.51399414 11.63296875 39.15079102 12.133125 39.80688477 12.6484375 C46.41516945 18.46372802 50.76396374 27.6798784 52.87719727 36.1328125 C52.87719727 41.0828125 52.87719727 46.0328125 52.87719727 51.1328125 C26.47719727 51.1328125 0.07719727 51.1328125 -27.12280273 51.1328125 C-23.7643477 62.04779137 -21.45459983 69.09271095 -12.12280273 75.1328125 C-6.01992054 77.92176404 -0.92119457 78.64965186 5.75219727 78.5703125 C7.07501709 78.56004028 7.07501709 78.56004028 8.42456055 78.54956055 C17.93740694 78.31468631 25.08855539 75.92145437 31.87719727 69.1328125 C33.3512516 67.18429692 34.60981212 65.22887254 35.87719727 63.1328125 C45.28722004 64.09636603 45.28722004 64.09636603 49.87719727 65.1328125 C48.71304039 72.67337408 44.4007809 78.19263493 38.56469727 82.9453125 C25.50940088 92.3765634 10.53050379 93.41850503 -5.12280273 92.1328125 C-16.76447241 90.06318233 -26.62635399 84.29722109 -34.12280273 75.1328125 C-41.42850709 64.31322317 -44.2161885 52.08404386 -43.12280273 39.1328125 C-40.79029858 27.81683522 -35.70236249 16.11692503 -26.12280273 9.1328125 C-23.53063646 7.5646135 -20.87973976 6.14184364 -18.18530273 4.7578125 C-17.51708496 4.41153809 -16.84886719 4.06526367 -16.16040039 3.70849609 C-10.75024521 1.07663568 -5.94454232 0.37191846 0 0 Z " fill="#F5F5F5" transform="translate(356.122802734375,58.8671875)"/>
<path d="M0 0 C5.39615062 4.69421233 9.08720735 10.25351589 10.5 17.3125 C10.58722819 19.45135603 10.6176739 21.59276847 10.61352539 23.73339844 C10.61341209 25.68496857 10.61341209 25.68496857 10.61329651 27.67596436 C10.60819024 29.09126829 10.60297425 30.50657184 10.59765625 31.921875 C10.59579035 33.37347363 10.59436726 34.82507288 10.59336853 36.27667236 C10.58955688 40.09069569 10.57973815 43.90468073 10.56866455 47.71868896 C10.55842135 51.61323529 10.55386468 55.50778783 10.54882812 59.40234375 C10.53811465 67.03908195 10.52052882 74.67578072 10.5 82.3125 C5.55 82.3125 0.6 82.3125 -4.5 82.3125 C-4.83 78.6825 -5.16 75.0525 -5.5 71.3125 C-7.170625 72.8903125 -7.170625 72.8903125 -8.875 74.5 C-20.53713445 84.7121355 -33.04348142 85.1455598 -47.87939453 84.54345703 C-53.3596537 84.06047537 -57.81785724 82.20370308 -62.5 79.3125 C-63.11746094 78.9515625 -63.73492188 78.590625 -64.37109375 78.21875 C-69.15792514 74.87632409 -71.83407603 69.76204789 -73.5 64.3125 C-74.37092659 57.65412574 -74.9009436 50.74486417 -71.4375 44.75 C-70.03125 42.94921875 -70.03125 42.94921875 -68.5 41.3125 C-67.77296875 40.48685547 -67.77296875 40.48685547 -67.03125 39.64453125 C-54.43433678 27.14024239 -30.45023003 29.14988265 -14.0625 29.1875 C-10.87457273 29.21212547 -7.68743249 29.25135698 -4.5 29.3125 C-4.58772455 27.41583474 -4.69591301 25.52011007 -4.8125 23.625 C-4.87050781 22.56925781 -4.92851563 21.51351562 -4.98828125 20.42578125 C-5.5567715 16.9671039 -6.35430749 15.07395416 -8.5 12.3125 C-10.84883776 10.699792 -10.84883776 10.699792 -13.5 9.5625 C-14.36625 9.15515625 -15.2325 8.7478125 -16.125 8.328125 C-21.16672109 6.17212585 -25.35056969 6.09527348 -30.75 6.0625 C-31.58402344 6.041875 -32.41804687 6.02125 -33.27734375 6 C-40.079127 5.95728865 -44.46720404 7.38253894 -50.25 11.0625 C-53.13739138 13.94989138 -54.1049059 16.49434772 -55.5 20.3125 C-60.45 20.3125 -65.4 20.3125 -70.5 20.3125 C-69.26275706 11.65179942 -67.12370668 6.12979384 -60.3125 0.5 C-44.02839863 -11.15855098 -16.24534115 -11.95141838 0 0 Z " fill="#F3F3F4" transform="translate(670.5,66.6875)"/>
<path d="M0 0 C5.97806266 4.93094977 8.59682146 10.61793423 10.453125 18.0234375 C10.69363403 21.29490662 10.69363403 21.29490662 10.68017578 24.69311523 C10.68002472 25.97391464 10.67987366 27.25471405 10.67971802 28.57432556 C10.66950789 29.95189575 10.65907596 31.32946431 10.6484375 32.70703125 C10.64470221 34.13192038 10.64185767 35.55681209 10.63986206 36.98170471 C10.63226621 40.71189605 10.61265309 44.4419289 10.5904541 48.17205811 C10.56990791 51.9864284 10.56084167 55.80082457 10.55078125 59.61523438 C10.52940286 67.08471565 10.49425433 74.55403408 10.453125 82.0234375 C5.833125 82.0234375 1.213125 82.0234375 -3.546875 82.0234375 C-3.876875 78.0634375 -4.206875 74.1034375 -4.546875 70.0234375 C-5.495625 71.0753125 -6.444375 72.1271875 -7.421875 73.2109375 C-17.23401008 82.98350752 -29.7844378 84.44920604 -43.00024414 84.46386719 C-52.63909754 84.26721062 -60.28378165 81.44253801 -67.546875 75.0234375 C-69.3125 72.8046875 -69.3125 72.8046875 -70.796875 70.5234375 C-71.29703125 69.770625 -71.7971875 69.0178125 -72.3125 68.2421875 C-75.50577477 62.50237716 -75.60726369 55.08587254 -73.96875 48.80859375 C-70.82506486 41.5924074 -65.1217689 36.62995267 -58.03515625 33.4453125 C-48.04655929 29.77312764 -38.09872648 29.09482759 -27.546875 29.0234375 C-26.04229736 29.01086914 -26.04229736 29.01086914 -24.50732422 28.99804688 C-17.85333048 28.95357236 -11.20073135 28.96560109 -4.546875 29.0234375 C-4.81297541 20.80093474 -5.25949765 15.31081485 -11.296875 9.2734375 C-17.55810024 5.79497903 -24.56090335 5.65902231 -31.546875 5.6484375 C-32.39765625 5.62394531 -33.2484375 5.59945312 -34.125 5.57421875 C-41.32353743 5.54109665 -46.30882219 7.53262765 -51.984375 11.8984375 C-54.07516644 14.40657966 -54.07516644 14.40657966 -54.546875 20.0234375 C-59.826875 20.0234375 -65.106875 20.0234375 -70.546875 20.0234375 C-70.25915374 12.11110278 -67.40020824 6.817877 -61.7578125 1.26171875 C-45.26186144 -12.21336884 -17.10377936 -11.58170202 0 0 Z " fill="#F4F4F4" transform="translate(1081.546875,66.9765625)"/>
<path d="M0 0 C6.51213897 6.51213897 8.41870132 14.03831108 8.4640007 23.04951382 C8.45288594 25.13882298 8.42212394 27.22731339 8.390625 29.31640625 C8.38315046 30.78327152 8.37746327 32.25014687 8.37347412 33.71702576 C8.35831285 37.54932976 8.31911576 41.38101259 8.2746582 45.21307373 C8.23349804 49.13480226 8.21541916 53.05663265 8.1953125 56.97851562 C8.1526098 64.65265767 8.08234071 72.32616213 8 80 C3.38 80 -1.24 80 -6 80 C-6.33 76.04 -6.66 72.08 -7 68 C-7.9075 69.051875 -8.815 70.10375 -9.75 71.1875 C-18.28442558 79.73923679 -31.53220346 82.40530498 -43.25 82.4375 C-51.39311387 82.43987201 -57.87614549 81.20424201 -65 77 C-65.62132812 76.6390625 -66.24265625 76.278125 -66.8828125 75.90625 C-71.65765372 72.54706523 -74.33333691 67.45196571 -76 62 C-76.87092659 55.34162574 -77.4009436 48.43236417 -73.9375 42.4375 C-72.52734375 40.63671875 -72.52734375 40.63671875 -71 39 C-70.29037109 38.17435547 -70.29037109 38.17435547 -69.56640625 37.33203125 C-61.20768542 28.88993166 -47.37887491 27.91911432 -36.1015625 27.68359375 C-35.26660248 27.66281265 -34.43164246 27.64203156 -33.57138062 27.62062073 C-30.9226651 27.55560531 -28.27385641 27.49646509 -25.625 27.4375 C-23.82160522 27.39426904 -22.01821962 27.35065334 -20.21484375 27.30664062 C-15.80998961 27.19997361 -11.4050424 27.09857305 -7 27 C-7.11597747 24.90695444 -7.24472363 22.81461359 -7.37890625 20.72265625 C-7.44924072 19.55742432 -7.5195752 18.39219238 -7.59204102 17.19165039 C-8.20942691 12.36155712 -9.17934917 11.04092617 -13 8 C-21.42462263 2.47079633 -32.32089047 2.96052973 -42 4 C-47.19819355 5.14765312 -50.70896185 6.77193932 -54.5625 10.4375 C-56.31974646 13.26099446 -56.31974646 13.26099446 -57 18 C-61.95 18 -66.9 18 -72 18 C-71.47117094 9.27432048 -69.22643426 4.96833711 -62.875 -1.125 C-46.26553443 -15.38895812 -16.39880967 -13.356813 0 0 Z " fill="#F5F5F5" transform="translate(942,69)"/>
<path d="M0 0 C0.71671875 -0.00773437 1.4334375 -0.01546875 2.171875 -0.0234375 C11.72244706 0.0110411 20.63641897 2.55980138 27.71484375 9.21484375 C30.6562582 12.444986 32.84381557 14.86560237 33.625 19.25 C34.285 19.25 34.945 19.25 35.625 19.25 C35.9034375 18.2290625 35.9034375 18.2290625 36.1875 17.1875 C40.36944663 8.64178298 48.21704895 4.91311318 56.625 1.25 C60.40322928 -0.00940976 63.94106686 0.10482598 67.875 0.125 C68.98294922 0.11919922 68.98294922 0.11919922 70.11328125 0.11328125 C80.94209388 0.13237968 88.10944287 2.59241842 96.4375 9.625 C105.25060842 20.20073011 107.08163348 29.86006176 106.91796875 43.47265625 C106.9123616 44.82742336 106.9080968 46.18219663 106.90510559 47.53697205 C106.89374466 51.07324526 106.86435521 54.60913873 106.83099365 58.14526367 C106.8001019 61.76541001 106.78655978 65.38561874 106.77148438 69.00585938 C106.73947516 76.08740823 106.68678092 83.16863909 106.625 90.25 C101.675 90.25 96.725 90.25 91.625 90.25 C91.60518066 88.66654785 91.58536133 87.0830957 91.56494141 85.45166016 C91.48852904 79.54362831 91.39986755 73.63583136 91.30761719 67.72802734 C91.26947416 65.17729347 91.23459643 62.6265085 91.203125 60.07568359 C91.15715472 56.39662486 91.0992136 52.71791349 91.0390625 49.0390625 C91.02173569 47.34470566 91.02173569 47.34470566 91.00405884 45.61611938 C90.82100312 31.96717701 90.82100312 31.96717701 84.625 20.25 C76.88813887 14.28110085 69.25463548 13.37903934 59.625 14.25 C52.73507858 16.10783705 46.16336827 20.18398153 42.33984375 26.30859375 C39.8821176 31.10952834 38.50670219 35.20659183 38.41967773 40.6394043 C38.39973251 41.74031906 38.37978729 42.84123383 38.35923767 43.97550964 C38.34252518 45.16308365 38.32581268 46.35065765 38.30859375 47.57421875 C38.2774221 49.39902519 38.2774221 49.39902519 38.24562073 51.26069641 C38.18015283 55.15290596 38.12125285 59.04518385 38.0625 62.9375 C38.01931218 65.57357482 37.9756978 68.20964269 37.93164062 70.84570312 C37.82447418 77.31373176 37.72319874 83.78182925 37.625 90.25 C32.675 90.25 27.725 90.25 22.625 90.25 C22.61041748 88.61119873 22.59583496 86.97239746 22.58081055 85.28393555 C22.52254798 79.16523138 22.44531697 73.04688448 22.36254883 66.9284668 C22.32943066 64.28757556 22.30135856 61.64661576 22.27856445 59.00561523 C22.24477729 55.19485441 22.19244809 51.38471444 22.13671875 47.57421875 C22.13032883 46.40606125 22.1239389 45.23790375 22.11735535 44.03434753 C21.97204069 31.9660304 21.97204069 31.9660304 17.04447937 21.27909851 C10.41286213 14.96887684 2.80626696 13.61463851 -6.1171875 13.83203125 C-13.50279345 14.77958501 -19.70104174 18.47628685 -24.375 24.25 C-28.03607719 29.76652108 -29.47486477 34.18443433 -29.58032227 40.75292969 C-29.60026749 41.85376892 -29.62021271 42.95460815 -29.64076233 44.08880615 C-29.65747482 45.27121887 -29.67418732 46.45363159 -29.69140625 47.671875 C-29.71218735 48.88699768 -29.73296844 50.10212036 -29.75437927 51.35406494 C-29.81976828 55.23598573 -29.87871051 59.1179742 -29.9375 63 C-29.98069532 65.63151742 -30.02430994 68.26302799 -30.06835938 70.89453125 C-30.17543887 77.34628479 -30.27673659 83.79810641 -30.375 90.25 C-35.655 90.25 -40.935 90.25 -46.375 90.25 C-46.375 61.21 -46.375 32.17 -46.375 2.25 C-41.095 2.25 -35.815 2.25 -30.375 2.25 C-30.045 6.21 -29.715 10.17 -29.375 14.25 C-28.199375 13.0125 -27.02375 11.775 -25.8125 10.5 C-18.33374923 3.03443926 -10.5165802 -0.11227666 0 0 Z " fill="#F4F4F4" transform="translate(472.375,58.75)"/>
<path d="M0 0 C6.22477472 5.80799715 12.10350095 14.79660297 14.6875 22.875 C14.6875 24.195 14.6875 25.515 14.6875 26.875 C11.01362505 27.72798376 7.6427607 27.98289471 3.875 27.9375 C2.89917969 27.92847656 1.92335938 27.91945312 0.91796875 27.91015625 C-0.18611328 27.89275391 -0.18611328 27.89275391 -1.3125 27.875 C-1.78816406 26.73224609 -1.78816406 26.73224609 -2.2734375 25.56640625 C-6.76658523 15.624386 -13.22484308 7.99902844 -23.41015625 3.58203125 C-31.76342417 0.47742859 -39.45136067 0.61143791 -48.3125 0.875 C-49.37339844 0.88144531 -50.43429688 0.88789062 -51.52734375 0.89453125 C-62.19407504 1.27298295 -71.46011613 5.98498597 -79.203125 13.26171875 C-87.98490152 24.14136411 -90.49879221 35.40514168 -90.5625 49.0625 C-90.583125 50.14853516 -90.60375 51.23457031 -90.625 52.35351562 C-90.68541883 64.9281846 -87.21352795 75.0422308 -78.9375 84.625 C-64.66880993 96.85530577 -52.63833294 98.79106365 -34.13671875 98.1015625 C-28.51625964 97.65068196 -24.08743572 95.90125525 -19.3125 92.875 C-18.56226562 92.41738281 -17.81203125 91.95976562 -17.0390625 91.48828125 C-9.09272606 86.09717939 -4.7680329 78.65611889 -1.3125 69.875 C4.32031599 69.6353057 9.23288831 70.48970179 14.6875 71.875 C14.46900292 81.4888716 7.92601934 90.33229258 1.53515625 97.14453125 C-10.71559409 108.6182784 -26.51639121 113.05766071 -42.8125 113.125 C-44.6378125 113.1559375 -44.6378125 113.1559375 -46.5 113.1875 C-64.01514918 113.26235106 -79.23905683 107.73629496 -91.92382812 95.36132812 C-105.60600115 80.71697697 -108.94844898 61.9322592 -108.65234375 42.54296875 C-107.97937731 25.86401222 -99.83077575 10.88693503 -87.7109375 -0.3515625 C-63.60052911 -21.0930802 -24.20999405 -18.88858942 0 0 Z " fill="#F6F6F6" transform="translate(138.3125,38.125)"/>
<path d="M0 0 C5.28 0 10.56 0 16 0 C22.18576333 12.94694651 27.85474932 26.10883095 33.52859497 39.2853241 C35.3526598 43.51583269 37.20020611 47.73535336 39.0625 51.94921875 C39.52873779 53.00753906 39.99497559 54.06585938 40.4753418 55.15625 C41.34751487 57.13340919 42.22379027 59.10876533 43.10473633 61.08203125 C43.68130981 62.39300781 43.68130981 62.39300781 44.26953125 63.73046875 C44.60573486 64.48739014 44.94193848 65.24431152 45.28833008 66.02416992 C46 68 46 68 46 71 C46.66 71 47.32 71 48 71 C48.10924805 70.31599121 48.21849609 69.63198242 48.33105469 68.92724609 C49.1182913 65.48236762 50.34782643 62.42878139 51.703125 59.1640625 C52.1146859 58.16757439 52.1146859 58.16757439 52.53456116 57.1509552 C53.43520043 54.97373725 54.34242096 52.79933321 55.25 50.625 C55.87685292 49.11479198 56.50339537 47.60445506 57.12963867 46.09399414 C58.75468835 42.17837166 60.38589818 38.26534565 62.01873779 34.35296631 C62.98702791 32.03110574 63.95314254 29.70835301 64.91845703 27.38525391 C66.42768303 23.75334077 67.93976458 20.1226334 69.45471191 16.49310303 C70.02605465 15.12393752 70.5967753 13.75451225 71.16687012 12.38482666 C71.95897511 10.48334477 72.7543549 8.58326895 73.55078125 6.68359375 C74.00106689 5.60650146 74.45135254 4.52940918 74.9152832 3.41967773 C76 1 76 1 77 0 C79.69654854 -0.07319621 82.36691458 -0.09242537 85.0625 -0.0625 C85.82111328 -0.05798828 86.57972656 -0.05347656 87.36132812 -0.04882812 C89.24091871 -0.0370068 91.12046899 -0.01907078 93 0 C91.49298025 4.80596844 89.60875118 9.34538217 87.5625 13.9375 C86.95938467 15.30067034 86.35651811 16.66395077 85.75390625 18.02734375 C85.4595166 18.69169434 85.16512695 19.35604492 84.86181641 20.04052734 C84.04026813 21.90844419 83.23645944 23.78413343 82.43359375 25.66015625 C81.16041255 28.62628684 79.84600488 31.56639961 78.5 34.5 C76.60880239 38.64369865 74.78495067 42.80924626 73 47 C72.3945574 48.36877895 71.78660128 49.73644761 71.17675781 51.10327148 C69.38951807 55.11815539 67.61882378 59.14000901 65.85516357 63.16529846 C64.24666402 66.8354901 62.63321252 70.50350022 61.02001953 74.17163086 C60.17911328 76.08573522 59.33957541 78.00044136 58.50146484 79.91577148 C54.37572511 89.34127496 50.23132949 98.75544807 45.703125 107.99609375 C45.2500296 108.93872826 45.2500296 108.93872826 44.78778076 109.90040588 C41.47211127 116.533049 37.63897266 121.47545451 30.69140625 124.3203125 C25.47982451 125.6364449 20.34058789 125.22486686 15 125 C15 120.71 15 116.42 15 112 C17.44140625 111.86979167 19.8828125 111.73958333 22.32421875 111.609375 C26.45319696 110.66905296 28.8791913 108.76569315 31.15795898 105.17578125 C32.31504529 103.02419333 33.35640071 100.84531756 34.375 98.625 C34.74238281 97.8825 35.10976562 97.14 35.48828125 96.375 C35.82988281 95.64539063 36.17148438 94.91578125 36.5234375 94.1640625 C36.83200684 93.50873535 37.14057617 92.8534082 37.45849609 92.17822266 C38.87058221 86.49804576 36.0281191 81.37489629 33.640625 76.33984375 C33.12938583 75.23820892 33.12938583 75.23820892 32.6078186 74.11431885 C31.87547492 72.53814967 31.13986853 70.96349308 30.40130615 69.39022827 C28.84376885 66.07207023 27.30216476 62.74659856 25.75985718 59.42134094 C24.97566113 57.73078453 24.19068469 56.04058991 23.40493774 54.35075378 C19.83054011 46.65829246 16.3338914 38.93248554 12.875 31.1875 C12.34914307 30.01010254 11.82328613 28.83270508 11.28149414 27.61962891 C9.8522565 24.41400386 8.42600078 21.20706582 7 18 C6.59475098 17.09282227 6.18950195 16.18564453 5.77197266 15.25097656 C4.73981159 12.93990133 3.71243333 10.62678765 2.6875 8.3125 C2.15511719 7.11238281 1.62273437 5.91226563 1.07421875 4.67578125 C0 2 0 2 0 0 Z " fill="#F6F6F7" transform="translate(1203,61)"/>
<path d="M0 0 C14.67054646 -0.54223786 25.56348694 -0.20843112 37 10 C44.19470332 17.35821931 47.13490498 25.92013494 47.11352539 36.07543945 C47.11341209 37.87674065 47.11341209 37.87674065 47.11329651 39.71443176 C47.10813522 41.00105209 47.10297394 42.28767242 47.09765625 43.61328125 C47.09578956 44.95134936 47.09436684 46.28941815 47.09336853 47.62748718 C47.08956314 51.1373587 47.07974988 54.64718839 47.06866455 58.15704346 C47.05840777 61.74336176 47.05386179 65.32968686 47.04882812 68.91601562 C47.03812572 75.94402926 47.02054506 82.97200831 47 90 C41.72 90 36.44 90 31 90 C30.98541748 88.22431641 30.97083496 86.44863281 30.95581055 84.61914062 C30.90399653 78.72773774 30.83866731 72.83656638 30.76428509 66.94541168 C30.71971034 63.37639154 30.68042676 59.80748214 30.65356445 56.23828125 C30.62740149 52.78860138 30.5869099 49.33935072 30.53681374 45.88993835 C30.51220684 43.94483186 30.50213393 41.99955885 30.49235535 40.05432129 C30.38194631 33.35731535 29.97578527 28.04766598 27 22 C24.94186388 19.91419613 24.94186388 19.91419613 22.5 18.625 C21.7265625 18.16351563 20.953125 17.70203125 20.15625 17.2265625 C19.4446875 16.82179688 18.733125 16.41703125 18 16 C17.01 15.34 16.02 14.68 15 14 C3.53422697 12.89207137 -5.07931598 13.92923834 -14.3125 21.1875 C-19.70448337 26.17132526 -22.6866653 33.13785777 -23.15821838 40.45513916 C-23.17376266 41.37003113 -23.18930695 42.2849231 -23.20532227 43.22753906 C-23.22526749 44.26831604 -23.24521271 45.30909302 -23.26576233 46.38140869 C-23.29083107 48.05659576 -23.29083107 48.05659576 -23.31640625 49.765625 C-23.33718735 50.91415955 -23.35796844 52.06269409 -23.37937927 53.24603271 C-23.44474993 56.91396111 -23.50370194 60.58196093 -23.5625 64.25 C-23.60569707 66.73698654 -23.64931175 69.22396587 -23.69335938 71.7109375 C-23.80041862 77.80721852 -23.90172147 83.90357136 -24 90 C-28.62 90 -33.24 90 -38 90 C-38 61.29 -38 32.58 -38 3 C-33.38 3 -28.76 3 -24 3 C-23.67 7.29 -23.34 11.58 -23 16 C-22.05125 14.80375 -21.1025 13.6075 -20.125 12.375 C-15.36281747 6.9463051 -9.71857446 2.38468012 -2.375 1.625 C-1.59125 1.74875 -0.8075 1.8725 0 2 C0 1.34 0 0.68 0 0 Z " fill="#F6F6F6" transform="translate(249,59)"/>
<path d="M0 0 C14.6974241 -2.05763937 14.6974241 -2.05763937 19.86914062 1.16455078 C23.3623642 4.33766579 26.03185869 8.13440463 28.66064453 12.03222656 C30.38573551 14.56672041 32.25082761 16.97393326 34.13671875 19.38989258 C35.36081421 20.96389371 36.55456005 22.56136399 37.74609375 24.16015625 C40.01475902 27.01859586 42.37377014 29.47566971 45 32 C45.96486328 30.7625 45.96486328 30.7625 46.94921875 29.5 C52.82839501 21.9797648 58.78400677 14.52986923 64.84643555 7.15625 C65.37406494 6.51171875 65.90169434 5.8671875 66.4453125 5.203125 C66.91469238 4.63239258 67.38407227 4.06166016 67.86767578 3.47363281 C69.08855061 1.98152438 69.08855061 1.98152438 70 0 C75.94 0 81.88 0 88 0 C86.02782749 3.94434503 83.67496934 6.90261265 80.8125 10.1875 C77.10154654 14.50775919 73.49643361 18.86630176 70.03515625 23.390625 C65.13104697 29.6784273 60.04215519 35.82270588 55 42 C56.61456561 45.36271993 58.48600859 47.99595907 60.875 50.875 C61.67679688 51.84179688 62.47859375 52.80859375 63.3046875 53.8046875 C66.68347721 57.82562285 70.10870922 61.80679895 73.53857422 65.78417969 C77.46986405 70.35158017 81.29071278 74.99486554 85.0625 79.6953125 C86.97555113 82.05048717 86.97555113 82.05048717 89.25 84.1796875 C91 86 91 86 91 88 C75.37668402 89.51682679 75.37668402 89.51682679 70.1171875 86.16015625 C67.82612259 83.5611525 65.91499117 80.88602709 64 78 C62.51660722 76.17388332 61.01633038 74.36136031 59.5 72.5625 C57.16172454 69.68683141 54.84102071 66.79938328 52.5390625 63.89453125 C51.74242187 62.89808594 50.94578125 61.90164062 50.125 60.875 C49.04605469 59.50988281 49.04605469 59.50988281 47.9453125 58.1171875 C46.09801577 55.76343791 46.09801577 55.76343791 43 55 C42.57332031 55.53625 42.14664062 56.0725 41.70703125 56.625 C38.40819154 60.76045267 35.09872203 64.88530955 31.75 68.98046875 C31.1830542 69.67462891 30.6161084 70.36878906 30.03198242 71.08398438 C28.90894019 72.45784947 27.7841769 73.83031 26.6574707 75.20117188 C26.12726318 75.85021484 25.59705566 76.49925781 25.05078125 77.16796875 C24.26634644 78.11700073 24.26634644 78.11700073 23.46606445 79.08520508 C21.9639994 80.96308674 21.9639994 80.96308674 20.82104492 83.0300293 C18.06881638 87.71824285 18.06881638 87.71824285 14.92456055 88.54711914 C12.47379851 88.68942474 10.13559106 88.61332974 7.6875 88.4375 C6.85154297 88.40591797 6.01558594 88.37433594 5.15429688 88.34179688 C3.10134494 88.2596788 1.05021102 88.13412595 -1 88 C0.31229303 85.17516144 1.77107839 82.87652312 3.765625 80.48828125 C4.31935791 79.82094971 4.87309082 79.15361816 5.44360352 78.46606445 C6.33776978 77.40005005 6.33776978 77.40005005 7.25 76.3125 C8.51444086 74.79176473 9.77876015 73.27092836 11.04296875 71.75 C11.69442871 70.96882813 12.34588867 70.18765625 13.01708984 69.3828125 C16.21533126 65.53956746 19.38781443 61.67520452 22.5625 57.8125 C26.36036925 53.19597655 30.16808078 48.58831296 34 44 C32.58696787 39.67550058 30.49967612 37.08712187 27.375 33.8125 C23.41699594 29.59186269 19.72404807 25.24619764 16.15625 20.69140625 C14.49945816 18.62341788 12.81851998 16.60002741 11.09375 14.58984375 C10.59222412 14.00509277 10.09069824 13.4203418 9.57397461 12.81787109 C8.58372936 11.66783663 7.58987393 10.52089862 6.59204102 9.37744141 C4.47719447 6.91835259 3.03692474 5.11077421 2 2 C1.34 2 0.68 2 0 2 C0 1.34 0 0.68 0 0 Z " fill="#F5F5F5" transform="translate(1106,61)"/>
<path d="M0 0 C5.28 0 10.56 0 16 0 C16 40.59 16 81.18 16 123 C10.72 123 5.44 123 0 123 C0 82.41 0 41.82 0 0 Z " fill="#EDEDED" transform="translate(973,26)"/>
<path d="M0 0 C0.64555744 15.89984067 0.64555744 15.89984067 -4.62890625 21.83203125 C-13.64195295 30.48091445 -24.61294375 32.40177709 -36.73828125 32.27734375 C-43.07688454 31.73837269 -47.24440936 29.4689636 -52.0625 25.4375 C-54.7928953 20.59325027 -54.8887667 16.4405812 -54 11 C-51.57956223 6.53149951 -48.61301362 4.92860457 -44 3 C-40.78698912 2.38514655 -37.57218928 2.12129696 -34.3125 1.875 C-33.39927979 1.79717285 -32.48605957 1.7193457 -31.54516602 1.63916016 C-21.06813721 0.77818286 -10.51553913 0 0 0 Z " fill="#060606" transform="translate(1077,107)"/>
<path d="M0 0 C0.81108397 14.77975238 0.81108397 14.77975238 -4 21 C-10.77383553 28.52843378 -19.41738231 31.4540483 -29.296875 32.2734375 C-37.33251065 32.50977973 -43.4151301 31.86148598 -50 27 C-53.16451708 23.68479163 -54.25976354 21.04425568 -54.625 16.5625 C-54.3753757 12.20875857 -53.14379427 9.50600717 -50.046875 6.4375 C-41.44712508 0.39798097 -29.04459335 1.4971227 -18.9765625 1.2109375 C-12.55937868 1.00775647 -6.44725276 -0.11115953 0 0 Z " fill="#060605" transform="translate(935,107)"/>
<path d="M0 0 C0.49125326 8.95172602 0.61497295 15.74847905 -5.47265625 22.67578125 C-13.18485043 30.02333268 -21.37462836 31.35388693 -31.6875 31.4375 C-32.59064941 31.44765137 -33.49379883 31.45780273 -34.42431641 31.46826172 C-41.53770388 31.37519916 -46.3920423 30.21953847 -51.9375 25.5 C-54.64195112 21.86078892 -54.88941805 18.13077362 -54.671875 13.6953125 C-53.68360728 9.73075014 -51.7162636 7.89081174 -48.62890625 5.33984375 C-40.63106542 1.26367821 -31.21532683 1.4177749 -22.4375 0.875 C-21.16197266 0.78863281 -19.88644531 0.70226562 -18.57226562 0.61328125 C-12.36933721 0.20769278 -6.21606971 -0.10974146 0 0 Z " fill="#050504" transform="translate(666,107)"/>
<path d="M0 0 C4.95243467 3.98348006 10.36295933 8.92832828 11.875 15.3125 C11.875 17.2925 11.875 19.2725 11.875 21.3125 C-9.245 21.3125 -30.365 21.3125 -52.125 21.3125 C-50.04608373 10.91791863 -48.15541557 6.3796445 -40.1875 -0.0625 C-27.34949535 -6.87450247 -12.83559223 -6.9312198 0 0 Z " fill="#070707" transform="translate(381.125,76.6875)"/>
<path d="M0 0 C4.95 0 9.9 0 15 0 C15 29.04 15 58.08 15 88 C10.05 88 5.1 88 0 88 C0 58.96 0 29.92 0 0 Z " fill="#F7F7F7" transform="translate(172,61)"/>
<path d="M0 0 C4.95 0 9.9 0 15 0 C15 5.61 15 11.22 15 17 C10.05 17 5.1 17 0 17 C0 11.39 0 5.78 0 0 Z " fill="#FBFBFB" transform="translate(172,27)"/>
<path d="M0 0 C1.72985242 0.11512153 3.45888751 0.24255677 5.1875 0.375 C6.15042969 0.44460937 7.11335937 0.51421875 8.10546875 0.5859375 C11.03959761 1.00566444 13.26764478 1.88666086 16 3 C21.39734285 4.19501286 26.86976117 4.32297106 32.375 4.5625 C33.30183594 4.60568359 34.22867188 4.64886719 35.18359375 4.69335938 C37.45560294 4.79876186 39.72770925 4.90088606 42 5 C42 5.33 42 5.66 42 6 C28.24091697 6.47426244 15.14811015 6.53154991 2 2 C1.34 1.34 0.68 0.68 0 0 Z " fill="#1B3CAA" transform="translate(748,151)"/>
<path d="M0 0 C0.99 0.33 1.98 0.66 3 1 C-0.30015998 5.13937592 -3.17324411 8.58662205 -8 11 C-6.52670958 5.99081256 -3.72484762 3.48192278 0 0 Z " fill="#1E1E1E" transform="translate(521,77)"/>
<path d="M0 0 C2.31 0 4.62 0 7 0 C6.360625 0.45375 5.72125 0.9075 5.0625 1.375 C2.90297594 2.83921726 2.90297594 2.83921726 2 5 C1.34 5 0.68 5 0 5 C-0.66 6.32 -1.32 7.64 -2 9 C-2.33 8.34 -2.66 7.68 -3 7 C-2.06421005 4.64018187 -1.06652192 2.30368736 0 0 Z " fill="#BFBEBE" transform="translate(137,108)"/>
<path d="M0 0 C0.66 0.33 1.32 0.66 2 1 C-0.88341534 5.21422242 -3.04303419 6.76075855 -8 8 C-5.58443874 4.80800833 -3.31996462 2.25283313 0 0 Z " fill="#194AD2" transform="translate(734,31)"/>
<path d="M0 0 C2.3125 0.1875 2.3125 0.1875 4 1 C1.06171403 3.50298434 -1.17902761 4.46930939 -5 5 C-2.75 2.4375 -2.75 2.4375 0 0 Z " fill="#1A4CDD" transform="translate(816,128)"/>
</svg>
